<?xml version="1.0" encoding="UTF-8" ?>
<!DOCTYPE svg PUBLIC "-//W3C//DTD SVG 1.1//EN" "http://www.w3.org/Graphics/SVG/1.1/DTD/svg11.dtd">
<svg width="1470pt" height="980pt" viewBox="0 0 1470 980" version="1.1" xmlns="http://www.w3.org/2000/svg">
<g id="#ffffffff">
<path fill="#ffffff" opacity="1.00" d=" M 953.04 333.40 C 953.31 331.76 955.36 331.60 956.04 333.06 C 955.29 333.15 953.79 333.31 953.04 333.40 Z" />
<path fill="#ffffff" opacity="1.00" d=" M 1228.62 376.68 C 1231.32 375.77 1234.10 375.15 1236.94 374.79 C 1237.70 376.65 1238.45 378.50 1239.20 380.37 L 1237.68 380.26 C 1234.63 379.14 1231.62 377.91 1228.62 376.68 Z" />
<path fill="#ffffff" opacity="1.00" d=" M 923.96 770.97 C 929.09 768.54 934.57 766.89 939.88 764.87 C 935.10 769.56 929.97 773.89 924.94 778.30 L 924.09 778.14 C 923.91 775.75 923.72 773.35 923.96 770.97 Z" />
<path fill="#ffffff" opacity="1.00" d=" M 901.22 791.82 C 903.42 792.22 905.58 792.82 907.66 793.65 C 903.75 797.06 900.03 800.70 895.92 803.88 C 897.42 799.74 899.40 795.81 901.22 791.82 Z" />
<path fill="#ffffff" opacity="1.00" d=" M 873.96 825.19 C 878.25 821.33 882.54 817.46 886.95 813.72 L 888.11 813.37 C 884.34 821.35 880.32 829.22 876.72 837.28 C 876.41 837.10 875.78 836.75 875.46 836.57 C 876.47 832.67 876.12 828.63 873.96 825.19 Z" />
<path fill="#ffffff" opacity="1.00" d=" M 864.82 843.30 C 868.85 843.00 872.45 840.96 874.90 837.77 C 875.28 837.98 876.04 838.39 876.42 838.60 C 871.25 847.55 867.49 857.22 862.80 866.42 C 863.27 858.70 864.04 851.00 864.82 843.30 Z" />
<path fill="#ffffff" opacity="1.00" d=" M 1462.39 857.09 C 1464.92 854.96 1467.56 852.98 1470.00 850.74 L 1470.00 866.38 C 1467.45 863.28 1464.78 860.29 1462.39 857.09 Z" />
</g>
<g id="#c8c9cdff">
<path fill="#c8c9cd" opacity="1.00" d=" M 1424.34 144.31 C 1426.95 141.37 1432.00 139.72 1435.12 142.82 C 1437.80 144.95 1436.95 148.65 1436.54 151.57 C 1434.93 152.60 1433.40 153.77 1431.64 154.49 C 1428.81 155.22 1426.65 152.70 1424.42 151.44 C 1424.34 149.07 1424.31 146.69 1424.34 144.31 Z" />
<path fill="#c8c9cd" opacity="1.00" d=" M 1262.40 265.23 C 1263.79 264.12 1265.10 262.53 1267.03 262.42 C 1268.30 262.80 1269.41 263.60 1270.59 264.24 C 1270.57 265.70 1270.56 267.17 1270.58 268.64 C 1269.41 269.66 1268.39 270.93 1266.99 271.61 C 1265.26 271.07 1263.86 269.87 1262.43 268.83 C 1262.41 267.63 1262.40 266.43 1262.40 265.23 Z" />
<path fill="#c8c9cd" opacity="1.00" d=" M 921.59 322.72 C 924.90 312.58 938.75 308.19 947.22 314.77 C 952.79 318.14 954.25 324.93 954.45 330.98 C 957.07 331.14 959.68 331.45 962.31 331.60 C 960.41 331.80 958.55 332.27 956.72 332.76 C 957.08 332.84 957.79 333.00 958.15 333.08 C 957.74 333.19 956.92 333.41 956.51 333.52 L 956.04 333.06 C 955.36 331.60 953.31 331.76 953.04 333.40 C 943.70 335.96 934.15 337.64 924.77 340.02 C 924.24 339.00 923.59 338.09 922.81 337.29 C 919.61 338.58 916.64 340.46 913.25 341.27 C 915.60 338.70 919.45 338.23 921.79 335.80 C 921.28 331.46 919.79 326.97 921.59 322.72 Z" />
<path fill="#c8c9cd" opacity="1.00" d=" M 926.42 340.38 C 935.07 338.28 943.76 336.29 952.50 334.52 C 950.61 343.09 940.76 346.16 932.99 345.00 C 929.14 356.14 925.13 367.23 921.36 378.40 C 919.09 385.07 916.30 391.57 914.67 398.44 C 913.54 399.12 912.41 399.80 911.31 400.51 C 914.79 388.05 919.76 376.06 923.76 363.76 C 925.95 357.26 928.27 350.81 930.59 344.36 C 929.18 343.04 927.78 341.72 926.42 340.38 Z" />
<path fill="#c8c9cd" opacity="1.00" d=" M 1074.37 347.13 C 1082.02 346.96 1089.51 348.74 1097.09 349.55 C 1124.77 353.17 1152.45 356.87 1180.16 360.28 L 1180.32 359.15 C 1182.09 359.86 1183.81 360.72 1185.55 361.55 C 1178.32 362.28 1171.24 360.24 1164.10 359.55 C 1134.29 355.72 1104.49 351.80 1074.70 347.78 L 1074.37 347.13 Z" />
<path fill="#c8c9cd" opacity="1.00" d=" M 896.12 349.06 C 897.49 348.48 898.94 348.12 900.41 347.75 C 895.84 351.01 890.59 353.08 885.67 355.70 C 835.08 380.79 784.63 406.14 734.03 431.20 C 734.03 430.82 734.03 430.06 734.04 429.68 C 754.88 419.87 775.23 409.05 796.01 399.10 C 829.33 382.33 862.80 365.85 896.12 349.06 Z" />
<path fill="#c8c9cd" opacity="1.00" d=" M 1456.19 348.25 C 1460.65 345.97 1467.04 349.71 1466.25 354.96 C 1466.48 360.25 1459.70 363.31 1455.59 360.42 C 1451.01 357.90 1451.43 350.39 1456.19 348.25 Z" />
<path fill="#c8c9cd" opacity="1.00" d=" M 1243.20 356.55 C 1250.60 349.97 1264.01 353.15 1267.38 362.52 C 1259.28 360.70 1251.24 358.61 1243.20 356.55 Z" />
<path fill="#c8c9cd" opacity="1.00" d=" M 1235.86 367.83 C 1237.34 363.90 1238.82 359.76 1242.19 357.01 C 1250.84 359.31 1259.55 361.39 1268.25 363.52 C 1271.18 368.71 1269.39 374.64 1267.13 379.68 C 1272.51 383.40 1278.08 386.84 1283.36 390.72 C 1286.56 393.15 1290.62 394.65 1292.88 398.16 C 1286.59 395.25 1281.50 390.37 1275.30 387.32 C 1278.83 391.70 1283.78 394.69 1287.01 399.34 C 1284.28 398.34 1281.55 397.37 1278.86 396.29 L 1280.41 396.18 C 1275.23 391.51 1270.15 386.71 1264.74 382.30 C 1261.83 384.35 1258.64 385.90 1255.29 387.07 C 1249.46 384.71 1243.56 382.49 1237.68 380.26 L 1239.20 380.37 C 1238.45 378.50 1237.70 376.65 1236.94 374.79 C 1234.10 375.15 1231.32 375.77 1228.62 376.68 C 1227.40 376.19 1226.16 375.70 1224.97 375.23 C 1228.40 373.57 1232.26 373.25 1235.82 371.97 C 1235.97 371.27 1236.27 369.87 1236.42 369.17 C 1225.31 367.58 1214.18 366.19 1203.07 364.64 C 1201.18 364.41 1199.27 364.42 1197.39 364.48 C 1196.47 364.08 1195.57 363.66 1194.69 363.27 C 1197.67 363.15 1200.68 362.97 1203.67 363.39 C 1214.39 364.87 1225.14 366.27 1235.86 367.83 Z" />
<path fill="#c8c9cd" opacity="1.00" d=" M 1220.88 375.13 C 1222.19 375.66 1223.50 376.19 1224.85 376.71 C 1219.82 378.61 1214.45 379.19 1209.26 380.42 C 1174.51 387.71 1139.80 395.20 1105.01 402.27 C 1103.72 402.60 1102.49 403.11 1101.29 403.60 C 1100.86 402.70 1100.43 401.81 1100.03 400.93 C 1118.31 396.86 1136.64 393.03 1154.98 389.29 C 1176.89 384.34 1199.04 380.38 1220.88 375.13 Z" />
<path fill="#c8c9cd" opacity="1.00" d=" M 1253.64 387.86 C 1254.05 388.03 1254.88 388.36 1255.29 388.53 C 1256.92 393.19 1256.78 398.18 1257.18 403.04 C 1260.63 439.15 1263.82 475.30 1267.17 511.42 C 1266.80 511.62 1266.06 512.00 1265.68 512.19 C 1264.18 509.33 1263.95 506.09 1263.78 502.93 C 1262.57 488.94 1261.13 474.98 1259.93 461.00 C 1258.16 436.59 1254.96 412.29 1253.64 387.86 Z" />
<path fill="#c8c9cd" opacity="1.00" d=" M 1098.74 401.32 C 1098.92 401.74 1099.28 402.56 1099.46 402.98 C 1096.11 404.35 1092.56 405.06 1089.03 405.71 C 1033.00 417.47 977.02 429.42 920.96 441.01 C 918.56 441.60 915.93 441.68 913.74 442.84 C 913.11 445.69 912.64 448.73 913.20 451.64 C 955.95 472.56 998.56 493.83 1041.29 514.83 C 1065.58 527.01 1090.26 538.41 1114.31 551.05 C 1112.04 550.92 1109.75 550.94 1107.57 550.32 C 1049.16 521.42 990.64 492.76 932.30 463.74 C 926.31 461.13 920.59 458.01 914.80 455.02 C 913.63 454.67 912.41 453.46 911.18 454.04 C 909.14 455.67 907.69 458.00 905.37 459.29 C 903.25 460.44 900.91 461.04 898.65 461.81 C 898.92 479.54 899.83 497.25 900.13 514.98 C 900.21 519.44 900.97 523.96 899.92 528.37 C 899.50 528.51 898.65 528.78 898.23 528.92 C 897.40 506.59 896.81 484.26 896.01 461.94 C 892.32 461.00 888.68 459.79 885.52 457.62 C 874.14 467.11 863.87 477.85 852.90 487.80 C 841.45 498.71 829.79 509.40 818.46 520.44 C 817.78 520.34 816.43 520.14 815.75 520.04 C 823.83 511.05 833.10 503.23 841.81 494.87 C 855.38 481.76 869.63 469.31 882.90 455.90 C 882.93 453.24 881.03 450.93 880.07 448.52 C 869.33 449.44 858.74 451.50 848.04 452.72 C 841.29 453.39 834.64 455.14 827.83 454.79 C 829.28 453.79 830.69 452.64 832.35 451.99 C 848.19 450.42 863.94 447.92 879.74 445.97 C 879.92 438.85 884.00 431.37 891.09 429.16 C 894.38 427.66 898.24 428.83 901.51 427.63 C 904.52 419.41 907.03 411.00 910.22 402.83 C 910.96 402.24 911.78 401.76 912.70 401.39 C 910.86 410.93 906.29 419.67 903.87 429.04 C 907.64 432.15 911.22 435.53 913.15 440.16 C 951.13 432.32 988.99 423.92 1027.00 416.23 C 1050.92 411.31 1074.74 405.84 1098.74 401.32 Z" />
<path fill="#c8c9cd" opacity="1.00" d=" M 1286.76 400.87 C 1288.96 401.66 1291.18 402.43 1293.37 403.29 C 1294.40 405.88 1297.02 407.21 1298.95 409.05 C 1319.92 427.57 1340.78 446.22 1361.87 464.59 C 1360.97 465.01 1360.09 465.44 1359.23 465.89 C 1354.07 461.70 1349.22 457.16 1344.22 452.79 C 1330.62 440.38 1316.52 428.53 1303.00 416.03 C 1297.64 410.92 1291.43 406.66 1286.76 400.87 Z" />
<path fill="#c8c9cd" opacity="1.00" d=" M 1262.23 407.09 C 1265.49 405.51 1270.16 408.01 1269.33 411.94 C 1269.09 415.64 1263.85 417.60 1261.47 414.59 C 1258.97 412.65 1259.85 408.74 1262.23 407.09 Z" />
<path fill="#c8c9cd" opacity="1.00" d=" M 732.59 419.79 C 732.99 423.93 733.16 428.11 732.92 432.28 C 726.34 434.61 720.42 438.37 714.07 441.20 C 704.22 446.34 694.09 450.88 684.28 456.09 C 676.17 459.60 668.72 464.60 660.29 467.32 C 662.94 464.73 666.50 463.52 669.75 461.89 C 681.75 455.87 693.82 449.99 705.76 443.85 C 714.41 439.29 723.54 435.60 732.00 430.74 C 732.53 427.11 732.38 423.43 732.59 419.79 Z" />
<path fill="#c8c9cd" opacity="1.00" d=" M 1124.94 452.96 C 1127.94 451.78 1131.88 450.81 1134.33 453.62 C 1137.38 456.41 1136.11 461.05 1133.92 463.96 C 1133.06 464.10 1131.35 464.39 1130.49 464.54 C 1128.63 460.68 1126.80 456.81 1124.94 452.96 Z" />
<path fill="#c8c9cd" opacity="1.00" d=" M 807.00 455.66 C 813.75 454.75 820.49 453.65 827.31 453.37 C 825.75 454.30 824.24 455.31 822.73 456.32 C 810.42 457.31 798.25 459.49 785.99 460.92 C 768.94 463.33 751.83 465.37 734.80 467.96 C 734.79 467.30 734.76 465.97 734.75 465.31 C 758.85 462.18 782.92 458.89 807.00 455.66 Z" />
<path fill="#c8c9cd" opacity="1.00" d=" M 1123.05 456.17 C 1123.49 456.15 1124.39 456.09 1124.83 456.07 C 1126.57 458.91 1127.82 462.02 1129.21 465.06 C 1127.52 464.38 1125.38 464.24 1124.32 462.60 C 1122.83 460.79 1123.02 458.35 1123.05 456.17 Z" />
<path fill="#c8c9cd" opacity="1.00" d=" M 620.71 468.69 C 625.62 463.38 634.16 461.89 640.52 465.41 C 643.94 467.13 646.34 470.21 648.49 473.28 C 641.33 480.51 634.65 488.19 627.59 495.53 C 626.52 495.60 625.46 495.68 624.41 495.77 C 621.83 492.28 618.04 489.47 616.87 485.11 C 614.98 479.46 616.79 473.03 620.71 468.69 Z" />
<path fill="#c8c9cd" opacity="1.00" d=" M 1360.46 466.72 C 1361.34 466.26 1362.25 465.81 1363.17 465.36 C 1367.12 469.91 1371.94 473.57 1376.30 477.71 C 1393.54 492.74 1410.55 508.05 1427.74 523.15 C 1432.69 527.31 1437.08 532.36 1442.72 535.62 C 1443.66 537.75 1444.56 539.90 1445.54 542.02 C 1439.13 538.12 1434.20 532.31 1428.44 527.58 C 1412.02 512.94 1395.50 498.42 1379.12 483.73 C 1372.98 477.97 1366.26 472.84 1360.46 466.72 Z" />
<path fill="#c8c9cd" opacity="1.00" d=" M 705.09 469.34 C 714.47 468.04 723.84 466.34 733.32 465.98 C 733.40 466.45 733.55 467.39 733.62 467.86 C 705.80 471.83 677.88 475.19 650.06 479.22 C 649.32 483.75 648.45 488.66 644.81 491.85 C 641.34 495.78 636.04 497.08 630.99 497.25 C 628.90 505.77 627.39 514.42 625.71 523.02 C 622.38 540.29 618.66 557.48 615.78 574.83 L 615.77 574.92 C 614.87 575.33 613.98 575.76 613.10 576.20 C 613.69 570.05 615.11 564.04 616.35 558.01 C 619.91 540.00 623.30 521.96 627.02 503.98 C 627.57 501.43 627.83 498.82 628.04 496.22 L 628.05 496.06 C 634.82 489.23 640.98 481.83 647.85 475.09 C 649.19 475.82 650.58 476.91 652.23 476.48 C 669.82 473.89 687.46 471.69 705.09 469.34 Z" />
<path fill="#c8c9cd" opacity="1.00" d=" M 981.23 470.36 C 983.98 469.45 987.64 471.84 986.72 474.98 C 986.58 478.55 980.85 480.16 979.28 476.71 C 977.37 474.48 979.21 471.69 981.23 470.36 Z" />
<path fill="#c8c9cd" opacity="1.00" d=" M 1421.93 486.11 C 1426.96 487.47 1430.82 491.12 1435.08 493.91 C 1441.90 498.49 1448.71 503.08 1455.50 507.72 C 1457.25 505.83 1459.00 503.94 1460.76 502.05 C 1463.86 505.10 1466.92 508.18 1470.00 511.26 L 1470.00 534.37 C 1462.39 534.57 1455.03 529.30 1453.00 521.95 C 1451.78 517.60 1452.85 513.09 1454.22 508.92 C 1449.04 504.88 1443.34 501.59 1437.99 497.80 C 1432.90 494.25 1427.91 490.56 1422.54 487.45 C 1422.39 487.12 1422.08 486.44 1421.93 486.11 Z" />
<path fill="#c8c9cd" opacity="1.00" d=" M 1462.15 502.40 C 1464.59 501.14 1467.26 500.43 1470.00 500.14 L 1470.00 510.10 C 1467.38 507.53 1464.72 505.01 1462.15 502.40 Z" />
<path fill="#c8c9cd" opacity="1.00" d=" M 1210.32 501.50 C 1213.61 502.03 1216.43 505.60 1214.96 508.96 C 1213.83 514.10 1205.09 514.40 1204.25 508.94 C 1202.54 504.89 1206.36 501.26 1210.32 501.50 Z" />
<path fill="#c8c9cd" opacity="1.00" d=" M 1116.31 504.59 C 1118.29 502.79 1121.44 500.84 1123.89 503.04 C 1127.52 505.16 1125.26 511.81 1121.01 510.94 C 1117.30 511.52 1115.94 507.55 1116.31 504.59 Z" />
<path fill="#c8c9cd" opacity="1.00" d=" M 932.28 503.33 C 936.33 501.66 939.84 507.14 937.31 510.39 C 936.05 512.56 933.20 511.89 931.15 511.74 C 927.94 509.81 928.51 504.17 932.28 503.33 Z" />
<path fill="#c8c9cd" opacity="1.00" d=" M 675.31 509.28 C 678.22 507.40 682.84 510.65 681.83 514.10 C 681.75 517.05 678.04 518.96 675.58 517.29 C 672.49 515.91 672.31 510.86 675.31 509.28 Z" />
<path fill="#c8c9cd" opacity="1.00" d=" M 612.12 512.89 C 613.16 511.72 614.36 510.71 615.68 509.87 C 615.02 512.29 613.82 514.51 612.47 516.62 C 595.35 545.51 577.75 574.14 560.74 603.10 L 561.62 603.49 L 562.05 603.68 C 560.73 604.17 559.44 604.68 558.14 605.17 C 573.02 579.55 588.57 554.29 603.81 528.87 C 606.59 523.74 610.58 519.09 612.01 513.35 L 612.12 512.89 Z" />
<path fill="#c8c9cd" opacity="1.00" d=" M 1264.34 514.30 C 1265.24 513.85 1266.14 513.39 1267.07 512.95 C 1270.14 540.57 1272.28 568.29 1274.93 595.95 C 1275.86 602.45 1275.60 609.08 1277.04 615.51 C 1280.04 615.95 1283.25 616.27 1285.81 618.10 C 1288.24 619.75 1291.33 622.00 1290.50 625.37 C 1284.95 622.25 1279.45 619.04 1273.97 615.81 C 1272.03 589.49 1269.01 563.26 1266.95 536.95 C 1265.78 529.43 1266.32 521.68 1264.34 514.30 Z" />
<path fill="#c8c9cd" opacity="1.00" d=" M 1087.31 525.44 C 1090.82 525.19 1093.17 529.45 1091.42 532.43 C 1089.72 536.00 1083.32 535.28 1083.04 531.11 C 1082.06 528.24 1084.70 525.87 1087.31 525.44 Z" />
<path fill="#c8c9cd" opacity="1.00" d=" M 899.07 530.80 C 899.49 530.62 900.34 530.25 900.76 530.07 C 903.11 606.34 905.49 682.63 908.11 758.89 C 911.13 759.62 914.32 760.20 916.88 762.11 C 919.27 763.79 920.70 766.45 922.96 768.29 C 930.24 766.31 936.85 762.35 944.25 760.76 C 942.93 762.26 941.61 763.83 939.88 764.87 C 934.57 766.89 929.09 768.54 923.96 770.97 C 923.72 773.35 923.91 775.75 924.09 778.14 L 924.94 778.30 C 919.11 783.34 913.46 788.58 907.66 793.65 C 905.58 792.82 903.42 792.22 901.22 791.82 C 899.40 795.81 897.42 799.74 895.92 803.88 C 894.86 805.34 893.22 806.22 891.73 807.18 C 893.38 801.46 896.47 796.33 898.69 790.85 C 896.35 788.01 892.93 785.86 891.86 782.15 C 890.97 779.97 891.05 777.37 889.74 775.44 C 873.41 773.13 856.89 772.35 840.58 769.82 C 840.37 769.37 839.95 768.49 839.74 768.04 C 856.73 768.56 873.55 771.47 890.49 772.84 C 891.68 769.81 892.91 766.67 895.26 764.34 C 897.87 761.39 901.70 760.15 905.32 758.93 C 905.17 736.59 903.92 714.27 903.46 691.93 C 901.90 642.92 900.19 593.91 898.80 544.89 C 898.65 540.20 897.95 535.43 899.07 530.80 Z" />
<path fill="#c8c9cd" opacity="1.00" d=" M 644.31 535.41 C 648.95 533.86 653.86 539.05 652.42 543.58 C 651.34 545.81 649.62 548.12 647.02 548.57 C 643.77 548.28 640.09 546.36 639.33 542.94 C 638.99 539.72 641.10 536.23 644.31 535.41 Z" />
<path fill="#c8c9cd" opacity="1.00" d=" M 786.84 540.75 C 788.31 538.88 790.80 538.25 793.06 538.75 L 792.65 539.12 C 792.72 539.58 792.84 540.51 792.91 540.97 C 791.09 542.21 789.17 543.50 788.31 545.61 C 787.29 546.48 786.27 547.34 785.28 548.24 C 785.44 545.72 784.90 542.75 786.84 540.75 Z" />
<path fill="#c8c9cd" opacity="1.00" d=" M 787.44 550.16 C 790.20 546.62 793.39 543.46 796.70 540.43 C 798.80 543.71 798.77 548.82 794.92 550.77 C 792.50 552.37 789.77 551.23 787.44 550.16 Z" />
<path fill="#c8c9cd" opacity="1.00" d=" M 1446.68 540.96 C 1455.29 546.43 1462.00 554.26 1470.00 560.51 L 1470.00 564.32 C 1462.88 558.71 1456.68 551.96 1449.24 546.80 C 1448.36 544.86 1447.54 542.90 1446.68 540.96 Z" />
<path fill="#c8c9cd" opacity="1.00" d=" M 1203.32 548.39 C 1205.05 547.36 1208.30 547.55 1208.77 549.94 C 1209.85 552.66 1206.50 555.54 1204.00 553.95 C 1201.99 552.88 1201.95 550.00 1203.32 548.39 Z" />
<path fill="#c8c9cd" opacity="1.00" d=" M 1113.58 552.74 C 1116.68 552.75 1119.79 552.94 1122.90 553.15 L 1122.61 553.35 C 1122.23 553.62 1121.47 554.15 1121.09 554.41 C 1133.36 560.04 1145.49 566.01 1157.41 572.36 C 1156.99 572.77 1156.15 573.59 1155.73 574.00 L 1155.56 573.92 C 1148.21 570.52 1140.97 566.87 1133.72 563.25 C 1127.04 559.67 1119.89 556.96 1113.58 552.74 Z" />
<path fill="#c8c9cd" opacity="1.00" d=" M 583.43 571.53 C 587.85 569.79 593.08 573.84 592.47 578.54 C 591.94 582.34 587.77 585.59 583.98 584.09 C 578.16 582.84 577.32 573.06 583.43 571.53 Z" />
<path fill="#c8c9cd" opacity="1.00" d=" M 758.73 572.28 L 758.94 571.98 C 759.20 573.14 759.54 574.32 759.90 575.48 C 735.49 597.84 711.66 620.83 687.47 643.44 C 677.05 652.82 667.34 662.97 656.59 671.98 C 657.45 669.78 658.50 667.66 659.50 665.53 L 659.73 665.37 C 661.87 664.00 663.86 662.39 665.66 660.60 C 673.50 652.77 681.97 645.59 689.82 637.75 C 694.63 632.84 699.93 628.45 704.91 623.71 C 718.08 610.94 731.81 598.77 744.91 585.94 C 749.53 581.41 754.95 577.60 758.73 572.28 Z" />
<path fill="#c8c9cd" opacity="1.00" d=" M 1156.97 574.51 C 1157.80 573.76 1158.63 573.01 1159.47 572.27 C 1165.00 576.45 1171.70 578.71 1177.70 582.14 C 1177.85 583.09 1178.01 584.06 1178.20 585.03 C 1171.01 581.75 1163.82 578.44 1156.97 574.51 Z" />
<path fill="#c8c9cd" opacity="1.00" d=" M 612.14 578.17 C 613.07 577.73 613.99 577.30 614.92 576.87 C 614.15 583.66 612.40 590.28 611.18 596.99 C 607.83 614.33 604.22 631.63 601.16 649.03 C 595.91 674.24 591.07 699.54 586.08 724.81 C 588.41 726.04 590.73 727.27 593.06 728.52 C 599.17 723.50 604.78 717.91 610.48 712.44 C 621.85 701.83 633.17 691.16 644.40 680.40 C 647.68 677.39 650.78 674.08 654.73 671.94 C 653.78 674.14 652.79 676.33 651.86 678.55 L 651.62 678.57 C 649.42 678.41 648.12 680.46 646.67 681.75 C 641.44 687.49 635.21 692.17 629.71 697.63 C 618.45 708.72 606.48 719.10 595.31 730.26 C 596.37 734.15 598.41 737.80 598.88 741.90 C 605.60 742.55 612.30 743.36 618.99 744.20 C 618.76 744.66 618.30 745.58 618.07 746.04 C 611.54 746.10 605.11 744.85 598.61 744.47 C 597.24 747.37 596.25 750.65 593.71 752.80 C 592.25 754.17 590.52 755.29 589.33 756.94 C 592.64 765.63 595.71 774.49 599.88 782.82 C 599.37 783.44 598.85 784.06 598.35 784.69 C 595.41 781.41 594.64 776.97 592.93 773.07 C 590.69 767.93 588.73 762.68 586.67 757.48 C 583.84 757.83 580.99 757.93 578.20 758.44 C 576.42 761.67 576.24 765.59 575.05 769.08 C 561.69 814.41 549.31 860.01 535.86 905.31 C 535.14 905.28 533.69 905.22 532.97 905.19 L 533.14 904.74 C 538.16 888.67 542.69 872.40 547.06 856.13 C 551.37 843.37 554.44 830.24 558.46 817.40 C 564.00 797.44 569.93 777.60 575.57 757.68 C 574.90 757.18 574.24 756.70 573.59 756.23 C 572.21 757.46 570.98 759.25 568.95 759.35 C 566.35 759.78 564.22 757.44 564.10 754.99 C 563.64 752.13 568.10 750.00 565.88 747.22 C 565.28 745.67 563.20 746.69 561.98 746.72 C 544.73 750.66 527.35 754.05 510.14 758.14 C 509.99 758.50 509.69 759.21 509.54 759.57 L 509.33 760.07 C 509.15 758.64 508.99 757.22 508.84 755.80 C 527.32 751.36 546.01 747.81 564.53 743.58 C 564.76 738.32 565.90 732.69 570.05 729.07 C 573.62 725.48 578.74 724.39 583.64 724.48 C 591.52 684.63 599.12 644.74 607.17 604.93 C 608.76 596.04 610.76 587.23 612.12 578.30 L 612.14 578.17 Z" />
<path fill="#c8c9cd" opacity="1.00" d=" M 1179.36 583.77 C 1184.41 584.67 1188.70 587.57 1193.24 589.78 C 1197.44 591.87 1201.78 593.70 1205.92 595.95 C 1224.50 605.40 1243.36 614.28 1262.01 623.60 C 1264.87 620.50 1268.08 617.58 1272.20 616.27 C 1280.82 621.42 1289.55 626.37 1298.18 631.51 C 1296.84 631.68 1295.52 631.86 1294.21 632.05 C 1293.76 636.79 1291.53 640.93 1289.26 645.00 C 1292.77 650.58 1297.54 655.25 1301.56 660.46 C 1350.82 720.84 1400.18 781.12 1449.55 841.41 C 1453.79 846.13 1457.04 851.75 1461.96 855.83 C 1461.07 856.52 1460.19 857.22 1459.34 857.93 C 1401.81 787.58 1344.44 717.11 1286.91 646.76 C 1283.17 648.39 1279.19 649.34 1275.12 649.46 C 1266.16 693.57 1257.81 737.82 1249.00 781.97 C 1242.59 814.62 1236.15 847.27 1229.96 879.97 C 1229.55 881.27 1229.01 882.53 1228.33 883.73 C 1227.94 881.69 1227.51 879.68 1227.16 877.65 C 1230.02 866.92 1231.65 855.90 1233.98 845.05 C 1245.20 787.35 1256.60 729.69 1267.87 672.01 C 1269.22 664.21 1271.32 656.53 1272.04 648.64 C 1267.55 647.24 1264.17 643.91 1261.68 640.05 C 1251.37 643.15 1241.71 647.97 1231.57 651.52 C 1218.53 656.16 1205.89 661.89 1192.72 666.16 C 1192.64 665.66 1192.48 664.66 1192.40 664.16 C 1199.95 660.52 1208.00 658.08 1215.72 654.84 C 1230.69 648.98 1245.75 643.30 1260.61 637.18 C 1260.04 633.35 1260.17 629.47 1260.75 625.66 C 1249.41 620.71 1238.61 614.65 1227.39 609.46 C 1219.62 606.09 1212.42 601.48 1204.43 598.65 C 1204.35 601.65 1200.37 604.79 1198.27 601.62 C 1196.08 599.66 1198.77 597.60 1199.79 595.82 C 1193.05 592.50 1186.18 589.43 1179.67 585.67 C 1179.60 585.20 1179.44 584.25 1179.36 583.77 Z" />
<path fill="#c8c9cd" opacity="1.00" d=" M 1319.20 607.38 C 1322.89 607.27 1323.58 613.44 1319.95 614.01 C 1317.46 615.02 1315.01 612.29 1315.64 609.89 C 1315.90 608.17 1317.70 607.58 1319.20 607.38 Z" />
<path fill="#c8c9cd" opacity="1.00" d=" M 871.22 609.16 C 872.61 607.52 874.95 608.35 876.82 608.24 C 878.00 610.53 878.82 613.48 876.80 615.59 C 875.06 616.19 873.10 616.35 871.39 615.62 C 869.96 613.81 869.16 610.84 871.22 609.16 Z" />
<path fill="#c8c9cd" opacity="1.00" d=" M 1324.95 626.01 C 1373.31 620.98 1421.64 615.75 1470.00 610.78 L 1470.00 613.86 C 1457.89 614.14 1445.94 616.21 1433.90 617.25 C 1409.94 619.97 1385.95 622.30 1361.97 624.81 C 1356.48 625.64 1350.98 626.50 1345.42 626.61 C 1332.39 627.78 1319.43 629.65 1306.38 630.59 C 1304.59 630.76 1302.85 631.24 1301.15 631.72 C 1299.97 631.00 1298.81 630.29 1297.65 629.62 C 1306.54 627.16 1315.88 627.48 1324.95 626.01 Z" />
<path fill="#c8c9cd" opacity="1.00" d=" M 296.20 623.09 C 300.08 621.25 302.80 627.65 298.90 629.04 C 295.32 630.61 292.86 624.98 296.20 623.09 Z" />
<path fill="#c8c9cd" opacity="1.00" d=" M 840.17 649.12 C 842.04 648.34 843.99 648.40 845.82 649.31 C 845.68 651.17 845.44 653.03 844.91 654.83 C 843.39 654.56 841.40 655.26 840.37 653.79 C 839.77 652.30 840.20 650.66 840.17 649.12 Z" />
<path fill="#c8c9cd" opacity="1.00" d=" M 261.39 651.43 C 266.03 648.60 273.09 653.76 271.11 658.99 C 270.29 663.94 263.07 666.04 259.86 662.16 C 256.77 659.26 257.67 653.38 261.39 651.43 Z" />
<path fill="#c8c9cd" opacity="1.00" d=" M 1190.99 656.20 C 1192.56 655.56 1194.10 654.71 1195.81 654.44 C 1198.71 654.87 1199.23 659.28 1196.71 660.54 C 1194.84 661.58 1193.11 659.97 1191.49 659.25 C 1191.30 658.23 1191.13 657.21 1190.99 656.20 Z" />
<path fill="#c8c9cd" opacity="1.00" d=" M 734.15 659.15 C 735.20 657.69 737.19 658.45 738.70 658.26 C 740.06 660.08 739.94 663.97 737.06 664.00 C 734.31 664.99 732.04 660.98 734.15 659.15 Z" />
<path fill="#c8c9cd" opacity="1.00" d=" M 1118.21 660.38 C 1120.61 658.75 1124.27 661.06 1123.07 663.97 C 1122.74 665.97 1120.62 666.22 1119.01 665.86 C 1116.50 665.57 1116.43 661.62 1118.21 660.38 Z" />
<path fill="#c8c9cd" opacity="1.00" d=" M 649.87 663.95 C 651.22 663.15 652.55 662.30 654.03 661.77 C 655.96 661.63 657.33 663.20 658.83 664.14 C 657.52 666.76 656.23 669.41 654.73 671.94 C 653.26 670.88 651.69 669.92 650.46 668.59 C 650.00 667.08 650.03 665.49 649.87 663.95 Z" />
<path fill="#c8c9cd" opacity="1.00" d=" M 1093.14 665.23 C 1095.21 664.05 1098.44 664.09 1098.91 667.00 C 1100.21 670.13 1095.88 672.09 1093.84 670.20 C 1092.49 668.84 1092.96 666.89 1093.14 665.23 Z" />
<path fill="#c8c9cd" opacity="1.00" d=" M 1161.11 676.09 C 1171.24 672.60 1180.85 667.68 1191.19 664.79 C 1191.26 665.28 1191.40 666.24 1191.48 666.72 C 1174.07 674.10 1156.27 680.57 1138.68 687.52 C 1080.80 710.03 1022.85 732.41 964.97 754.93 C 958.57 757.32 952.41 760.55 945.64 761.78 C 947.48 760.16 949.27 758.49 951.11 756.87 C 953.40 756.44 955.70 755.86 957.87 754.97 C 1025.62 728.69 1093.34 702.31 1161.11 676.09 Z" />
<path fill="#c8c9cd" opacity="1.00" d=" M 992.20 684.15 C 995.31 681.05 1001.23 684.82 999.73 688.98 C 998.76 692.17 994.99 692.28 992.25 691.81 C 990.96 689.46 989.56 686.15 992.20 684.15 Z" />
<path fill="#c8c9cd" opacity="1.00" d=" M 570.29 702.38 C 574.51 700.49 579.94 704.31 579.14 708.98 C 579.07 713.51 573.62 716.62 569.70 714.35 C 564.69 712.33 564.87 703.75 570.29 702.38 Z" />
<path fill="#c8c9cd" opacity="1.00" d=" M 495.29 709.49 C 496.09 707.98 497.14 706.62 498.32 705.39 C 497.99 706.84 497.71 708.40 496.80 709.64 C 492.71 715.76 489.20 722.24 485.31 728.48 C 484.57 729.77 483.47 730.76 482.42 731.78 C 486.04 724.01 490.95 716.88 495.29 709.49 Z" />
<path fill="#c8c9cd" opacity="1.00" d=" M 784.27 721.35 C 785.74 720.35 788.56 721.06 788.78 723.02 C 789.39 724.83 788.10 727.13 786.08 727.11 C 782.96 727.66 781.68 722.76 784.27 721.35 Z" />
<path fill="#c8c9cd" opacity="1.00" d=" M 209.38 727.27 C 209.83 725.72 211.08 723.81 212.95 724.32 C 214.03 724.75 215.03 725.36 216.06 725.92 C 215.65 727.41 216.38 729.82 214.44 730.40 C 212.35 731.89 208.72 729.88 209.38 727.27 Z" />
<path fill="#c8c9cd" opacity="1.00" d=" M 940.43 732.50 C 943.82 731.08 947.79 734.44 946.65 738.04 C 945.87 741.93 939.55 742.67 938.26 738.80 C 936.63 736.51 938.29 733.69 940.43 732.50 Z" />
<path fill="#c8c9cd" opacity="1.00" d=" M 268.27 738.36 C 272.39 736.65 274.47 743.37 270.31 744.47 C 266.51 746.13 264.43 739.34 268.27 738.36 Z" />
<path fill="#c8c9cd" opacity="1.00" d=" M 463.93 741.99 C 464.33 738.20 468.74 738.03 471.62 738.78 C 470.88 742.14 470.48 745.55 469.85 748.94 C 467.27 747.24 462.71 746.04 463.93 741.99 Z" />
<path fill="#c8c9cd" opacity="1.00" d=" M 470.34 749.36 C 472.78 747.34 474.08 744.33 476.42 742.21 C 474.86 746.35 472.47 750.11 469.72 753.55 C 469.79 752.23 469.90 750.92 470.05 749.63 L 470.34 749.36 Z" />
<path fill="#c8c9cd" opacity="1.00" d=" M 620.41 744.08 L 620.57 744.10 C 628.62 745.51 636.80 745.70 644.90 746.75 C 707.90 753.60 770.95 760.11 833.96 766.90 C 835.24 767.03 836.49 766.87 837.71 766.42 L 837.99 766.34 C 838.17 767.11 838.54 768.65 838.72 769.42 L 838.07 769.55 C 831.21 769.52 824.39 768.54 817.60 767.66 C 751.47 760.63 685.33 753.63 619.21 746.59 C 619.60 745.75 620.00 744.91 620.41 744.08 Z" />
<path fill="#c8c9cd" opacity="1.00" d=" M 315.11 750.17 C 317.08 748.47 320.38 750.54 320.08 752.99 C 320.46 756.32 314.58 757.28 313.83 754.03 C 312.86 752.61 313.70 750.88 315.11 750.17 Z" />
<path fill="#c8c9cd" opacity="1.00" d=" M 443.69 766.14 C 444.15 758.55 450.33 751.48 458.04 750.76 C 461.80 750.14 465.51 751.29 469.08 752.36 C 466.78 763.02 465.22 773.84 462.83 784.49 C 459.22 784.02 455.39 783.84 452.21 781.86 C 446.72 778.78 443.13 772.46 443.69 766.14 Z" />
<path fill="#c8c9cd" opacity="1.00" d=" M 945.77 755.93 C 945.04 753.28 947.78 752.07 949.86 751.65 C 950.66 752.38 951.48 753.13 952.31 753.87 C 950.95 755.22 949.57 756.53 948.17 757.83 C 947.57 757.36 946.37 756.40 945.77 755.93 Z" />
<path fill="#c8c9cd" opacity="1.00" d=" M 469.62 753.68 C 473.21 755.50 474.94 759.13 477.03 762.33 C 487.26 760.67 497.27 757.74 507.51 756.08 C 507.65 756.88 507.79 757.68 507.95 758.50 C 497.73 760.52 487.52 762.59 477.38 764.93 C 477.07 769.34 476.77 774.17 473.71 777.68 C 471.18 780.88 467.41 782.67 463.69 784.10 C 465.89 774.00 467.29 763.75 469.62 753.68 Z" />
<path fill="#c8c9cd" opacity="1.00" d=" M 353.87 762.95 C 353.73 757.75 362.08 755.90 364.31 760.54 C 364.77 761.70 365.19 762.87 365.58 764.08 C 364.46 766.33 362.98 769.01 360.10 769.04 C 356.57 769.72 353.47 766.38 353.87 762.95 Z" />
<path fill="#c8c9cd" opacity="1.00" d=" M 1035.14 775.29 C 1038.40 774.16 1042.56 775.75 1043.63 779.20 C 1045.86 784.21 1040.07 790.10 1035.02 787.94 C 1029.22 786.38 1029.28 776.81 1035.14 775.29 Z" />
<path fill="#c8c9cd" opacity="1.00" d=" M 619.88 777.81 C 621.14 775.46 624.75 775.65 626.30 777.62 C 628.04 779.26 627.04 781.74 626.75 783.76 C 624.60 784.91 622.20 784.79 619.98 783.96 C 619.49 781.99 618.45 779.62 619.88 777.81 Z" />
<path fill="#c8c9cd" opacity="1.00" d=" M 911.71 791.95 C 914.99 788.74 918.45 785.73 921.96 782.78 C 921.18 784.40 920.40 786.05 920.08 787.84 C 943.21 813.04 966.50 838.14 989.65 863.34 C 991.54 865.57 994.45 866.43 996.74 868.16 C 998.23 870.42 998.92 873.16 1000.67 875.28 C 1011.45 886.88 1022.17 898.56 1032.92 910.21 C 1036.21 913.77 1040.09 916.97 1042.16 921.49 C 1040.28 920.56 1038.41 919.64 1036.56 918.69 C 1035.65 916.33 1033.46 914.86 1031.84 913.04 C 1020.66 900.89 1009.57 888.65 998.27 876.60 C 995.91 878.13 993.40 880.49 990.35 879.57 C 987.59 878.70 984.82 876.16 985.05 873.05 C 984.83 870.23 987.05 868.18 988.51 866.04 C 976.24 852.15 963.28 838.88 950.95 825.04 C 939.77 813.23 928.98 801.06 917.78 789.28 C 915.79 790.25 913.76 791.13 911.71 791.95 Z" />
<path fill="#c8c9cd" opacity="1.00" d=" M 600.40 783.98 L 600.50 784.31 C 602.71 791.81 606.00 798.92 608.83 806.19 C 617.36 827.67 626.15 849.05 634.43 870.62 C 636.70 876.52 639.59 882.18 641.26 888.30 C 640.68 888.46 639.53 888.76 638.95 888.92 C 627.72 860.58 616.43 832.27 605.12 803.96 C 603.07 798.73 601.33 793.34 598.50 788.45 L 598.46 788.39 C 599.18 786.95 599.82 785.47 600.40 783.98 Z" />
<path fill="#c8c9cd" opacity="1.00" d=" M 182.30 793.42 C 187.03 791.96 187.88 800.50 183.05 800.06 C 179.02 800.66 178.53 794.04 182.30 793.42 Z" />
<path fill="#c8c9cd" opacity="1.00" d=" M 462.78 792.51 C 464.58 796.82 464.01 801.56 464.51 806.10 C 467.70 850.72 470.72 895.35 473.92 939.98 C 474.27 944.20 473.94 948.61 475.66 952.61 L 475.79 952.99 C 475.27 953.10 474.23 953.34 473.71 953.46 C 472.01 939.59 471.66 925.58 470.49 911.65 C 468.07 875.77 465.65 839.90 463.04 804.04 C 462.95 800.73 463.28 797.29 461.89 794.18 C 462.11 793.76 462.56 792.93 462.78 792.51 Z" />
<path fill="#c8c9cd" opacity="1.00" d=" M 725.16 796.26 C 728.52 793.92 732.05 799.51 728.67 801.51 C 725.28 803.98 721.12 798.10 725.16 796.26 Z" />
<path fill="#c8c9cd" opacity="1.00" d=" M 886.95 813.72 C 888.56 812.27 890.19 810.84 891.85 809.43 C 891.40 811.88 890.70 814.30 889.53 816.51 C 885.82 823.73 882.87 831.33 878.77 838.35 C 878.25 838.08 877.23 837.55 876.72 837.28 C 880.32 829.22 884.34 821.35 888.11 813.37 L 886.95 813.72 Z" />
<path fill="#c8c9cd" opacity="1.00" d=" M 678.18 814.25 C 680.51 812.82 683.44 814.48 684.06 816.98 C 685.84 820.65 680.24 824.16 677.52 821.40 C 674.83 819.78 675.77 815.66 678.18 814.25 Z" />
<path fill="#c8c9cd" opacity="1.00" d=" M 168.29 815.36 C 170.11 813.79 172.29 815.15 174.01 816.09 C 173.85 817.93 174.31 820.38 172.01 821.00 C 168.65 823.27 165.28 817.50 168.29 815.36 Z" />
<path fill="#c8c9cd" opacity="1.00" d=" M 625.31 828.39 C 629.05 825.96 634.36 828.09 635.67 832.30 C 637.23 837.53 630.78 842.89 625.95 840.04 C 621.43 837.85 621.07 831.08 625.31 828.39 Z" />
<path fill="#c8c9cd" opacity="1.00" d=" M 876.42 838.60 C 876.92 838.86 877.90 839.37 878.39 839.63 C 875.15 846.93 871.55 854.07 868.22 861.33 C 866.51 864.82 865.02 868.48 862.45 871.45 C 862.55 869.76 862.65 868.09 862.80 866.42 C 867.49 857.22 871.25 847.55 876.42 838.60 Z" />
<path fill="#c8c9cd" opacity="1.00" d=" M 330.35 842.38 C 333.90 841.82 337.54 846.20 335.32 849.40 C 333.84 852.48 328.64 853.16 327.15 849.77 C 325.29 847.10 327.16 842.83 330.35 842.38 Z" />
<path fill="#c8c9cd" opacity="1.00" d=" M 378.25 848.36 C 383.66 846.98 388.36 853.75 385.39 858.36 C 383.53 863.17 375.62 863.01 373.58 858.39 C 371.06 854.53 373.86 849.11 378.25 848.36 Z" />
<path fill="#c8c9cd" opacity="1.00" d=" M 1460.47 858.67 C 1461.09 858.13 1461.73 857.60 1462.39 857.09 C 1464.78 860.29 1467.45 863.28 1470.00 866.38 L 1470.00 870.47 C 1466.55 866.75 1463.26 862.90 1460.47 858.67 Z" />
<path fill="#c8c9cd" opacity="1.00" d=" M 784.36 861.50 C 787.06 859.73 791.06 860.81 792.06 863.99 C 793.22 867.77 788.85 871.60 785.29 869.62 C 782.07 868.19 782.09 863.77 784.36 861.50 Z" />
<path fill="#c8c9cd" opacity="1.00" d=" M 896.18 861.42 C 898.73 861.52 901.30 862.88 902.82 864.96 C 903.59 867.71 903.84 871.41 901.18 873.26 C 897.55 876.91 889.90 874.47 889.89 869.05 C 889.28 865.25 892.47 861.71 896.18 861.42 Z" />
<path fill="#c8c9cd" opacity="1.00" d=" M 295.22 867.23 C 298.44 864.92 303.25 868.03 302.68 871.89 C 302.30 875.99 296.10 877.51 293.95 873.98 C 292.19 871.88 292.89 868.58 295.22 867.23 Z" />
<path fill="#c8c9cd" opacity="1.00" d=" M 850.44 892.39 C 854.08 885.57 856.72 878.25 860.83 871.69 C 860.60 874.22 860.42 876.77 860.24 879.31 C 857.27 883.30 855.58 888.01 853.43 892.45 C 839.59 921.63 825.78 950.84 811.89 980.00 L 808.75 980.00 C 822.56 950.75 836.67 921.65 850.44 892.39 Z" />
<path fill="#c8c9cd" opacity="1.00" d=" M 1226.62 882.77 C 1227.06 885.61 1227.55 888.47 1228.01 891.32 C 1221.56 920.75 1216.39 950.47 1210.35 980.00 L 1207.72 980.00 C 1209.16 969.45 1211.57 959.06 1213.61 948.62 C 1217.84 926.65 1222.23 904.70 1226.62 882.77 Z" />
<path fill="#c8c9cd" opacity="1.00" d=" M 637.85 890.51 C 639.19 890.17 640.54 889.83 641.90 889.51 C 645.96 898.25 648.94 907.44 652.75 916.28 C 661.31 937.49 669.67 958.79 678.22 980.00 L 675.19 980.00 C 663.26 950.35 651.62 920.57 639.76 890.89 C 639.28 890.79 638.33 890.61 637.85 890.51 Z" />
<path fill="#c8c9cd" opacity="1.00" d=" M 707.07 898.30 C 711.08 896.71 713.62 904.11 708.97 904.82 C 704.61 906.32 702.97 899.35 707.07 898.30 Z" />
<path fill="#c8c9cd" opacity="1.00" d=" M 1042.76 923.50 C 1045.59 924.82 1048.41 926.15 1051.16 927.63 L 1049.50 927.53 C 1053.65 933.27 1058.91 938.06 1063.61 943.35 C 1074.75 955.66 1086.21 967.68 1097.36 980.00 L 1093.32 980.00 C 1079.07 963.86 1064.14 948.33 1049.71 932.35 C 1047.14 929.61 1044.28 927.01 1042.76 923.50 Z" />
<path fill="#c8c9cd" opacity="1.00" d=" M 527.46 925.00 C 528.45 925.56 529.49 926.06 530.58 926.48 C 527.92 931.39 527.23 937.03 525.47 942.27 C 521.64 954.79 518.45 967.50 514.57 980.00 L 511.78 980.00 C 516.72 961.59 522.34 943.36 527.46 925.00 Z" />
<path fill="#c8c9cd" opacity="1.00" d=" M 610.27 937.35 C 614.93 935.73 620.04 940.15 619.34 944.97 C 618.74 949.91 612.26 952.62 608.24 949.76 C 603.81 946.72 604.87 938.69 610.27 937.35 Z" />
</g>
<g id="#292426ff">
<path fill="#292426" opacity="1.00" d=" M 1047.28 303.44 C 1050.67 298.99 1057.44 297.83 1062.05 301.07 C 1066.16 303.48 1067.26 308.54 1066.89 312.98 C 1068.18 313.43 1069.53 313.91 1070.86 314.35 C 1074.31 314.51 1077.64 315.48 1080.97 316.39 C 1135.06 329.70 1189.07 343.35 1243.20 356.55 C 1251.24 358.61 1259.28 360.70 1267.38 362.52 C 1281.53 366.29 1295.80 369.58 1309.97 373.26 C 1311.39 370.49 1313.02 367.51 1316.01 366.17 C 1321.20 363.36 1328.39 365.80 1330.73 371.26 C 1332.84 375.12 1331.57 379.69 1329.43 383.23 C 1331.97 385.14 1334.55 387.12 1336.35 389.79 C 1333.79 387.89 1331.47 385.71 1329.06 383.65 C 1325.67 386.25 1321.06 388.02 1316.95 386.05 C 1311.92 384.28 1309.48 378.82 1309.90 373.76 C 1295.98 370.49 1282.16 366.82 1268.25 363.52 C 1259.55 361.39 1250.84 359.31 1242.19 357.01 C 1188.74 343.74 1135.29 330.47 1081.83 317.24 C 1077.96 316.44 1074.13 314.48 1070.11 315.38 L 1073.71 316.13 C 1073.07 316.50 1072.43 316.88 1071.81 317.25 C 1069.98 316.35 1068.15 315.50 1066.31 314.67 C 1064.83 316.62 1063.17 318.44 1061.29 320.01 C 1065.73 329.01 1069.95 338.12 1074.37 347.13 L 1074.70 347.78 C 1082.99 365.57 1091.61 383.20 1100.03 400.93 C 1100.43 401.81 1100.86 402.70 1101.29 403.60 C 1109.20 420.04 1116.95 436.56 1124.94 452.96 C 1126.80 456.81 1128.63 460.68 1130.49 464.54 C 1143.66 492.33 1156.98 520.04 1170.25 547.79 C 1175.46 545.89 1181.17 548.11 1184.33 552.54 C 1211.44 539.07 1238.61 525.73 1265.68 512.19 C 1266.06 512.00 1266.80 511.62 1267.17 511.42 C 1297.92 496.36 1328.56 481.10 1359.23 465.89 C 1360.09 465.44 1360.97 465.01 1361.87 464.59 C 1367.31 461.86 1372.86 459.35 1378.14 456.32 C 1363.58 446.32 1349.04 436.37 1334.38 426.54 C 1328.48 422.69 1323.07 417.89 1316.61 414.97 C 1315.48 414.05 1314.40 413.03 1313.97 411.60 C 1307.18 408.62 1300.31 405.87 1293.37 403.29 C 1291.18 402.43 1288.96 401.66 1286.76 400.87 C 1276.37 396.50 1265.80 392.58 1255.29 388.53 C 1254.88 388.36 1254.05 388.03 1253.64 387.86 C 1243.99 384.28 1234.56 380.12 1224.85 376.71 C 1223.50 376.19 1222.19 375.66 1220.88 375.13 C 1209.13 370.53 1197.48 365.66 1185.55 361.55 C 1183.81 360.72 1182.09 359.86 1180.32 359.15 C 1161.14 351.82 1141.98 344.43 1122.88 336.88 C 1106.53 330.70 1090.42 323.84 1073.91 318.09 C 1073.85 317.70 1073.71 316.91 1073.65 316.52 C 1095.80 324.87 1117.77 333.71 1139.88 342.18 C 1158.23 349.00 1176.23 356.76 1194.69 363.27 C 1195.57 363.66 1196.47 364.08 1197.39 364.48 C 1206.51 368.22 1215.73 371.76 1224.97 375.23 C 1226.16 375.70 1227.40 376.19 1228.62 376.68 C 1231.62 377.91 1234.63 379.14 1237.68 380.26 C 1243.56 382.49 1249.46 384.71 1255.29 387.07 C 1263.13 390.19 1270.99 393.26 1278.86 396.29 C 1281.55 397.37 1284.28 398.34 1287.01 399.34 C 1291.83 401.27 1296.60 403.38 1301.59 404.86 C 1299.36 401.80 1295.75 400.36 1292.93 397.97 C 1296.03 399.97 1299.73 401.50 1301.66 404.84 C 1311.89 409.41 1322.44 413.16 1332.85 417.28 C 1351.27 424.55 1369.79 431.59 1388.20 438.90 C 1390.14 439.54 1392.40 440.99 1394.13 438.96 C 1381.59 428.07 1368.82 417.43 1356.22 406.59 C 1349.34 400.68 1342.07 395.16 1335.64 388.76 C 1339.75 391.42 1343.26 394.87 1347.03 397.98 C 1362.78 411.17 1378.34 424.60 1394.04 437.85 C 1396.37 436.09 1398.80 433.93 1401.95 434.15 C 1407.98 433.61 1413.80 438.90 1413.58 445.01 C 1413.81 447.96 1412.18 450.51 1410.78 452.95 C 1427.92 469.42 1444.89 486.07 1462.15 502.40 C 1464.72 505.01 1467.38 507.53 1470.00 510.10 L 1470.00 511.26 C 1466.92 508.18 1463.86 505.10 1460.76 502.05 C 1443.72 485.92 1426.91 469.53 1410.06 453.20 C 1409.48 453.67 1408.33 454.61 1407.75 455.08 C 1412.51 465.40 1417.02 475.85 1421.93 486.11 C 1422.08 486.44 1422.39 487.12 1422.54 487.45 C 1430.42 505.36 1438.44 523.22 1446.68 540.96 C 1447.54 542.90 1448.36 544.86 1449.24 546.80 C 1456.16 562.05 1462.86 577.40 1470.00 592.55 L 1470.00 595.71 C 1461.62 577.92 1453.86 559.84 1445.54 542.02 C 1444.56 539.90 1443.66 537.75 1442.72 535.62 C 1434.84 518.27 1427.16 500.84 1419.14 483.56 C 1415.35 481.52 1411.27 479.87 1408.11 476.87 C 1399.34 470.17 1389.87 464.43 1380.98 457.93 C 1390.59 463.99 1399.86 470.58 1409.14 477.14 C 1411.03 478.34 1413.44 478.85 1414.77 480.84 C 1416.17 481.66 1417.52 482.43 1418.99 483.23 C 1415.09 473.99 1410.75 464.94 1406.76 455.74 C 1401.47 457.00 1395.97 455.21 1392.80 450.75 C 1382.88 455.53 1373.08 460.57 1363.17 465.36 C 1362.25 465.81 1361.34 466.26 1360.46 466.72 C 1329.33 482.12 1298.20 497.53 1267.07 512.95 C 1266.14 513.39 1265.24 513.85 1264.34 514.30 C 1237.83 527.46 1211.27 540.52 1184.79 553.76 C 1185.64 556.89 1185.38 560.13 1184.50 563.22 C 1214.28 580.82 1244.12 598.32 1273.97 615.81 C 1279.45 619.04 1284.95 622.25 1290.50 625.37 C 1292.85 626.82 1295.20 628.30 1297.65 629.62 C 1298.81 630.29 1299.97 631.00 1301.15 631.72 C 1357.37 664.89 1413.75 697.81 1470.00 730.94 L 1470.00 732.37 C 1412.68 698.83 1355.47 665.09 1298.18 631.51 C 1289.55 626.37 1280.82 621.42 1272.20 616.27 C 1242.81 598.87 1213.26 581.75 1183.91 564.27 C 1181.94 566.39 1179.54 568.02 1176.84 569.06 C 1177.69 573.96 1178.43 578.88 1179.36 583.77 C 1179.44 584.25 1179.60 585.20 1179.67 585.67 C 1183.25 609.21 1187.38 632.66 1190.99 656.20 C 1191.13 657.21 1191.30 658.23 1191.49 659.25 C 1191.78 660.88 1192.10 662.51 1192.40 664.16 C 1192.48 664.66 1192.64 665.66 1192.72 666.16 C 1204.14 736.67 1215.61 807.17 1227.16 877.65 C 1227.51 879.68 1227.94 881.69 1228.33 883.73 C 1233.03 915.88 1238.76 947.89 1243.76 980.00 L 1242.45 980.00 C 1237.69 950.43 1232.91 920.87 1228.01 891.32 C 1227.55 888.47 1227.06 885.61 1226.62 882.77 C 1215.01 810.74 1203.29 738.72 1191.48 666.72 C 1191.40 666.24 1191.26 665.28 1191.19 664.79 C 1186.90 638.20 1182.61 611.60 1178.20 585.03 C 1178.01 584.06 1177.85 583.09 1177.70 582.14 C 1177.07 577.86 1176.37 573.59 1175.73 569.31 C 1172.34 569.16 1169.17 568.00 1166.42 566.05 C 1164.10 568.12 1161.75 570.15 1159.47 572.27 C 1158.63 573.01 1157.80 573.76 1156.97 574.51 C 1088.29 635.23 1019.67 696.02 951.11 756.87 C 949.27 758.49 947.48 760.16 945.64 761.78 C 937.64 768.65 929.69 775.60 921.96 782.78 C 918.45 785.73 914.99 788.74 911.71 791.95 C 904.90 797.55 898.38 803.51 891.85 809.43 C 890.19 810.84 888.56 812.27 886.95 813.72 C 882.54 817.46 878.25 821.33 873.96 825.19 C 876.12 828.63 876.47 832.67 875.46 836.57 C 875.78 836.75 876.41 837.10 876.72 837.28 C 877.23 837.55 878.25 838.08 878.77 838.35 C 931.34 865.18 983.91 892.01 1036.56 918.69 C 1038.41 919.64 1040.28 920.56 1042.16 921.49 C 1080.17 941.23 1118.54 960.28 1156.55 980.00 L 1151.98 980.00 L 1153.29 979.69 C 1119.26 962.31 1085.21 944.98 1051.16 927.63 C 1048.41 926.15 1045.59 924.82 1042.76 923.50 C 1006.88 904.85 970.72 886.71 934.71 868.30 C 915.94 858.74 897.22 849.08 878.39 839.63 C 877.90 839.37 876.92 838.86 876.42 838.60 C 876.04 838.39 875.28 837.98 874.90 837.77 C 872.45 840.96 868.85 843.00 864.82 843.30 C 864.04 851.00 863.27 858.70 862.80 866.42 C 862.65 868.09 862.55 869.76 862.45 871.45 C 858.75 907.59 855.95 943.83 852.59 980.00 L 851.28 980.00 C 854.27 946.44 857.38 912.88 860.24 879.31 C 860.42 876.77 860.60 874.22 860.83 871.69 C 861.93 862.22 862.76 852.71 863.42 843.20 C 859.45 842.14 856.09 839.49 854.60 835.61 C 808.81 846.80 763.21 858.82 717.48 870.26 C 692.30 876.74 667.08 883.02 641.90 889.51 C 640.54 889.83 639.19 890.17 637.85 890.51 C 607.00 898.38 576.12 906.11 545.29 914.07 C 545.08 916.89 545.10 919.95 543.35 922.35 C 541.66 925.03 538.68 926.41 535.76 927.31 C 536.89 944.89 538.44 962.43 539.65 980.00 L 538.33 980.00 C 537.15 962.97 535.81 945.94 534.54 928.91 C 534.83 926.68 531.78 927.26 530.58 926.48 C 529.49 926.06 528.45 925.56 527.46 925.00 C 526.65 924.22 525.87 923.43 525.10 922.65 C 508.27 933.60 491.17 944.14 474.32 955.05 C 475.23 963.34 475.50 971.69 476.26 980.00 L 475.40 980.00 C 476.18 977.37 475.55 974.62 475.36 971.97 C 474.65 966.39 474.73 960.76 474.15 955.18 C 461.01 963.31 448.06 971.73 435.01 980.00 L 415.40 980.00 C 418.01 976.02 422.61 973.99 427.32 974.34 C 435.60 929.36 444.25 884.45 452.68 839.50 C 455.93 821.14 459.92 802.91 462.83 784.49 C 465.22 773.84 466.78 763.02 469.08 752.36 C 469.27 751.50 469.66 749.79 469.85 748.94 C 470.48 745.55 470.88 742.14 471.62 738.78 C 476.95 710.33 482.58 681.92 487.61 653.42 C 484.16 652.07 480.62 649.90 479.50 646.14 C 477.45 640.62 480.47 633.92 486.12 632.12 C 490.06 630.49 494.18 632.16 497.61 634.17 C 527.46 602.17 557.46 570.31 587.43 538.42 C 598.68 526.13 610.47 514.34 621.37 501.74 C 621.14 499.72 621.96 497.69 623.67 496.55 C 623.30 497.78 622.94 499.01 622.59 500.25 C 624.46 498.91 626.09 497.26 627.59 495.53 C 634.65 488.19 641.33 480.51 648.49 473.28 C 656.90 464.15 665.57 455.24 674.01 446.11 C 677.41 442.37 681.18 438.94 684.18 434.86 C 687.24 432.36 689.74 429.31 692.44 426.45 C 703.18 414.91 714.07 403.49 724.89 392.00 C 723.31 389.60 721.44 387.08 721.62 384.06 C 721.34 378.33 726.19 372.94 731.99 372.93 C 737.32 372.47 741.88 376.50 743.47 381.37 C 797.34 369.01 851.26 356.80 905.16 344.53 C 907.79 343.76 910.62 343.17 912.78 341.34 C 912.63 341.75 912.32 342.57 912.17 342.99 C 916.36 341.96 920.55 340.96 924.77 340.02 C 934.15 337.64 943.70 335.96 953.04 333.40 C 953.79 333.31 955.29 333.15 956.04 333.06 L 956.51 333.52 C 955.14 333.86 953.84 334.22 952.50 334.52 C 943.76 336.29 935.07 338.28 926.42 340.38 C 921.28 341.32 916.23 342.63 911.12 343.68 C 907.62 344.63 903.86 345.20 900.93 347.49 L 901.72 345.98 C 848.99 357.74 796.36 369.98 743.65 381.83 C 743.42 384.75 743.28 387.92 741.34 390.30 C 739.55 393.05 736.28 394.04 733.33 394.97 C 733.62 406.54 733.84 418.11 734.04 429.68 C 734.03 430.06 734.03 430.82 734.03 431.20 C 734.15 442.57 734.46 453.94 734.75 465.31 C 734.76 465.97 734.79 467.30 734.80 467.96 C 734.93 479.02 734.99 490.08 735.30 501.14 C 738.68 501.79 741.83 503.28 744.15 505.89 C 770.32 489.34 796.61 472.96 822.73 456.32 C 824.24 455.31 825.75 454.30 827.31 453.37 C 855.41 435.91 883.38 418.24 911.31 400.51 C 912.41 399.80 913.54 399.12 914.67 398.44 C 946.09 378.64 977.58 358.95 1008.90 339.00 C 1002.24 337.49 995.42 337.13 988.70 336.07 C 980.98 334.99 973.26 333.56 965.44 333.74 C 965.39 333.35 965.28 332.58 965.23 332.19 C 962.84 332.40 960.49 332.70 958.15 333.08 C 957.79 333.00 957.08 332.84 956.72 332.76 C 958.55 332.27 960.41 331.80 962.31 331.60 C 963.58 331.56 964.82 331.33 966.04 330.93 C 966.29 330.79 966.78 330.50 967.03 330.36 C 993.00 324.61 1018.92 318.56 1044.87 312.72 C 1045.04 309.52 1045.13 306.02 1047.28 303.44 M 967.81 330.89 C 965.93 331.83 968.59 333.41 969.69 333.46 C 975.86 333.95 982.01 334.75 988.12 335.72 C 995.00 336.83 1002.00 337.17 1008.81 338.70 C 1011.61 337.72 1013.98 335.85 1016.50 334.33 C 1026.27 328.02 1036.26 322.07 1045.96 315.65 C 1046.70 313.38 1044.87 312.94 1043.11 313.69 C 1018.02 319.45 992.90 325.11 967.81 330.89 M 912.76 401.10 L 912.70 401.39 C 911.78 401.76 910.96 402.24 910.22 402.83 C 884.17 419.05 858.10 435.31 832.35 451.99 C 830.69 452.64 829.28 453.79 827.83 454.79 C 799.95 471.89 772.46 489.63 744.69 506.92 C 745.33 508.87 745.84 510.88 746.25 512.90 C 769.41 515.36 792.56 517.97 815.75 520.04 C 816.43 520.14 817.78 520.34 818.46 520.44 C 845.03 523.41 871.68 525.78 898.23 528.92 C 898.65 528.78 899.50 528.51 899.92 528.37 L 899.85 528.74 C 913.88 530.71 928.03 531.75 942.11 533.34 C 972.73 536.55 1003.35 539.71 1033.98 542.91 C 1058.51 545.30 1083.00 548.28 1107.57 550.32 C 1109.75 550.94 1112.04 550.92 1114.31 551.05 C 1130.68 553.19 1147.16 554.63 1163.59 556.29 C 1164.29 553.03 1166.24 550.18 1169.07 548.42 C 1155.89 520.58 1142.66 492.76 1129.21 465.06 C 1127.82 462.02 1126.57 458.91 1124.83 456.07 C 1116.66 438.25 1108.14 420.56 1099.46 402.98 C 1099.28 402.56 1098.92 401.74 1098.74 401.32 C 1090.26 382.98 1081.36 364.82 1072.65 346.58 C 1067.68 346.94 1062.82 345.70 1057.92 345.19 C 1043.32 343.04 1028.66 341.29 1014.02 339.39 C 1024.71 340.06 1035.28 342.07 1045.93 343.23 C 1054.78 344.15 1063.53 346.30 1072.45 346.38 C 1068.64 337.97 1064.48 329.72 1060.55 321.37 C 1059.98 319.81 1058.12 321.12 1057.03 320.98 C 1053.03 321.75 1049.45 319.32 1046.81 316.61 C 1002.19 344.88 957.42 372.90 912.76 401.10 M 654.62 467.79 C 653.27 468.95 655.55 469.33 656.35 469.50 C 657.49 468.65 658.68 467.84 659.91 467.11 C 657.80 468.55 655.55 471.31 652.73 470.17 C 651.15 471.86 649.45 473.42 647.85 475.09 C 640.98 481.83 634.82 489.23 628.05 496.06 L 628.04 496.22 C 623.81 500.45 619.76 504.84 615.85 509.36 L 615.68 509.87 C 614.36 510.71 613.16 511.72 612.12 512.89 L 612.01 513.35 C 573.68 553.53 536.05 594.40 497.81 634.67 C 498.29 635.43 498.87 636.11 499.57 636.70 C 511.20 630.19 523.10 624.17 534.82 617.83 C 542.56 613.58 550.71 609.87 558.14 605.17 C 559.44 604.68 560.73 604.17 562.05 603.68 L 561.62 603.49 C 578.88 594.61 596.04 585.48 613.10 576.20 C 613.98 575.76 614.87 575.33 615.77 574.92 L 615.78 574.83 C 652.20 555.69 688.56 536.39 724.82 516.96 C 723.81 513.56 723.55 509.66 725.65 506.60 C 727.33 503.43 730.84 502.11 734.11 501.24 C 734.16 490.11 733.72 478.99 733.62 467.86 C 733.55 467.39 733.40 466.45 733.32 465.98 C 733.39 454.75 733.03 443.51 732.92 432.28 C 733.16 428.11 732.99 423.93 732.59 419.79 C 732.55 411.47 732.21 403.16 732.15 394.85 C 729.74 394.44 727.41 393.67 725.39 392.28 C 701.89 417.54 678.14 442.55 654.62 467.79 M 1335.33 426.69 C 1339.35 429.73 1343.73 432.27 1347.85 435.18 C 1354.44 439.18 1360.29 444.34 1367.11 447.98 C 1370.52 451.02 1374.61 453.16 1378.08 456.14 C 1383.10 454.53 1387.61 451.69 1392.36 449.41 C 1391.51 446.91 1391.56 444.28 1392.01 441.72 C 1366.65 431.95 1341.47 421.66 1315.95 412.33 C 1321.07 418.66 1329.22 421.47 1335.33 426.69 M 739.63 522.61 C 746.70 539.03 753.09 555.75 760.07 572.21 C 760.23 572.71 760.55 573.71 760.71 574.21 C 787.18 638.77 813.32 703.46 839.74 768.04 C 839.95 768.49 840.37 769.37 840.58 769.82 C 847.12 787.19 854.77 804.15 861.27 821.54 C 865.44 820.61 869.87 821.38 873.09 824.33 C 879.16 818.46 886.15 813.50 891.73 807.18 C 893.22 806.22 894.86 805.34 895.92 803.88 C 900.03 800.70 903.75 797.06 907.66 793.65 C 913.46 788.58 919.11 783.34 924.94 778.30 C 929.97 773.89 935.10 769.56 939.88 764.87 C 941.61 763.83 942.93 762.26 944.25 760.76 C 945.68 759.98 946.87 758.82 948.17 757.83 C 949.57 756.53 950.95 755.22 952.31 753.87 L 952.50 754.04 C 1020.05 693.86 1088.02 634.13 1155.56 573.92 L 1155.73 574.00 C 1156.15 573.59 1156.99 572.77 1157.41 572.36 C 1160.22 569.99 1162.92 567.49 1165.71 565.10 C 1164.38 562.79 1163.64 560.23 1163.33 557.61 C 1149.77 556.10 1136.19 554.75 1122.61 553.35 L 1122.90 553.15 C 1119.79 552.94 1116.68 552.75 1113.58 552.74 C 1111.11 551.90 1108.46 551.91 1105.92 551.59 C 1037.54 544.35 969.10 537.56 900.76 530.07 C 900.34 530.25 899.49 530.62 899.07 530.80 L 899.19 530.20 C 871.57 527.14 843.93 524.15 816.26 521.60 C 815.41 521.44 814.56 521.28 813.73 521.12 C 791.15 518.84 768.58 516.48 746.01 514.08 C 745.13 517.72 742.79 520.66 739.63 522.61 M 614.92 576.87 C 613.99 577.30 613.07 577.73 612.14 578.17 L 612.12 578.30 C 593.27 588.26 574.30 598.04 555.66 608.40 C 555.66 609.37 555.63 610.35 555.58 611.33 C 552.54 614.57 551.05 618.87 548.42 622.41 C 535.30 644.32 522.15 666.21 509.00 688.10 C 506.65 692.21 504.36 696.39 501.38 700.10 C 519.33 670.77 536.68 641.05 554.66 611.74 C 554.97 610.53 555.27 609.32 555.57 608.12 C 537.04 618.19 518.25 627.80 499.76 637.95 C 502.82 644.16 498.54 651.75 492.06 653.40 C 497.94 687.49 503.14 721.68 508.84 755.80 C 508.99 757.22 509.15 758.64 509.33 760.07 L 509.54 759.57 C 510.92 770.05 512.89 780.46 514.49 790.91 C 520.77 828.84 526.61 866.86 533.14 904.74 L 532.97 905.19 C 533.69 905.22 535.14 905.28 535.86 905.31 C 536.78 905.51 537.70 905.72 538.63 905.94 C 558.58 865.62 578.80 825.42 598.61 785.03 L 598.35 784.69 C 598.85 784.06 599.37 783.44 599.88 782.82 C 605.88 770.53 612.08 758.34 618.07 746.04 C 618.30 745.58 618.76 744.66 618.99 744.20 C 629.93 722.36 640.81 700.48 651.62 678.57 L 651.86 678.55 C 652.79 676.33 653.78 674.14 654.73 671.94 C 656.23 669.41 657.52 666.76 658.83 664.14 C 682.39 616.74 706.06 569.39 729.49 521.93 C 727.91 520.83 726.55 519.47 725.26 518.09 C 688.59 537.88 651.58 557.06 614.92 576.87 M 730.30 522.81 C 707.09 570.48 682.98 617.72 659.73 665.37 L 659.50 665.53 C 658.50 667.66 657.45 669.78 656.59 671.98 C 651.65 680.44 647.81 689.54 643.25 698.23 C 635.68 713.52 627.94 728.73 620.57 744.10 L 620.41 744.08 C 620.00 744.91 619.60 745.75 619.21 746.59 C 612.94 759.15 606.71 771.72 600.50 784.31 L 600.40 783.98 C 599.82 785.47 599.18 786.95 598.46 788.39 L 598.50 788.45 C 578.76 827.72 559.34 867.14 539.76 906.49 C 541.98 908.13 543.72 910.30 544.80 912.85 C 576.18 904.88 607.58 896.96 638.95 888.92 C 639.53 888.76 640.68 888.46 641.26 888.30 C 712.27 870.34 783.28 852.35 854.26 834.20 C 853.39 829.25 856.13 824.51 860.32 822.03 C 853.26 804.53 846.14 787.05 838.97 769.60 L 838.07 769.55 L 838.72 769.42 C 838.54 768.65 838.17 767.11 837.99 766.34 L 837.71 766.42 C 811.79 702.77 786.02 639.05 759.90 575.48 C 759.54 574.32 759.20 573.14 758.94 571.98 L 758.73 572.28 C 752.10 555.83 745.21 539.48 738.71 522.98 C 735.90 523.38 733.09 523.24 730.30 522.81 M 488.04 653.93 C 482.52 685.80 476.02 717.53 470.34 749.36 L 470.05 749.63 C 469.90 750.92 469.79 752.23 469.72 753.55 L 469.62 753.68 C 467.29 763.75 465.89 774.00 463.69 784.10 C 463.39 786.89 462.39 789.69 462.78 792.51 C 462.56 792.93 462.11 793.76 461.89 794.18 C 456.70 820.75 451.88 847.40 446.78 873.99 C 440.63 907.44 434.05 940.81 428.07 974.28 C 430.09 975.83 432.62 976.78 434.22 978.93 C 447.42 970.61 460.56 962.16 473.77 953.83 L 473.71 953.46 C 474.23 953.34 475.27 953.10 475.79 952.99 L 475.66 952.61 C 491.93 942.16 508.49 932.12 524.52 921.31 C 520.98 915.14 524.97 906.85 531.81 905.33 C 523.84 856.39 516.04 807.42 507.95 758.50 C 507.79 757.68 507.65 756.88 507.51 756.08 C 505.45 741.67 502.88 727.34 500.66 712.96 C 497.24 693.00 494.39 672.95 490.77 653.03 C 489.70 653.05 488.79 653.34 488.04 653.93 Z" />
<path fill="#292426" opacity="1.00" d=" M 479.13 736.33 C 480.90 736.83 479.16 741.07 477.41 740.66 C 476.87 739.12 478.12 737.39 479.13 736.33 Z" />
<path fill="#292426" opacity="1.00" d=" M 1461.96 855.83 C 1464.62 853.61 1467.34 851.45 1470.00 849.22 L 1470.00 850.74 C 1467.56 852.98 1464.92 854.96 1462.39 857.09 C 1461.73 857.60 1461.09 858.13 1460.47 858.67 C 1410.92 899.08 1361.40 939.53 1311.89 980.00 L 1309.91 980.00 C 1359.66 939.24 1409.51 898.60 1459.34 857.93 C 1460.19 857.22 1461.07 856.52 1461.96 855.83 Z" />
<path fill="#292426" opacity="1.00" d=" M 541.74 925.92 C 542.09 925.43 542.44 924.96 542.80 924.51 C 559.07 943.27 576.09 961.39 592.55 980.00 L 590.82 980.00 C 581.16 969.04 571.26 958.30 561.50 947.42 C 554.85 940.31 548.73 932.69 541.74 925.92 Z" />
</g>
<g id="#b3b3b4ff">
<path fill="#b3b3b4" opacity="1.00" d=" M 813.73 521.12 C 814.56 521.28 815.41 521.44 816.26 521.60 C 810.15 528.29 803.08 534.01 796.70 540.43 C 793.39 543.46 790.20 546.62 787.44 550.16 C 783.28 551.71 780.88 555.81 777.59 558.59 C 771.90 563.73 766.36 569.02 760.71 574.21 C 760.55 573.71 760.23 572.71 760.07 572.21 C 768.46 564.21 776.82 556.16 785.28 548.24 C 786.27 547.34 787.29 546.48 788.31 545.61 C 789.17 543.50 791.09 542.21 792.91 540.97 C 792.84 540.51 792.72 539.58 792.65 539.12 L 793.06 538.75 C 793.56 538.80 794.57 538.90 795.07 538.95 C 801.61 533.38 807.74 527.28 813.73 521.12 Z" />
</g>
</svg>
